<?xml version="1.0" encoding="UTF-8"?>
<svg id="Layer_1" data-name="Layer 1" xmlns="http://www.w3.org/2000/svg" viewBox="0 0 372.15 48.55">
  <defs>
    <style>
      .cls-1 {
        fill: #0443cb;
        stroke-width: 0px;
      }
    </style>
  </defs>
  <path class="cls-1" d="m45.07.61l3.79,29.74-2.12,17.45c-.08.46-.3.76-.83.76h-21.32c-.38,0-.76-.3-.68-.76l1.14-9.56h-1.06l-1.14,9.56c-.08.46-.3.76-.83.76H.69c-.38,0-.76-.3-.68-.76l2.12-17.45L13.36.61c.15-.46.46-.61.83-.61h30.04c.46,0,.76.15.83.61Zm-19.8,26.71h1.21l1.59-13.96h-.91l-1.9,13.96Z"/>
  <path class="cls-1" d="m100.46.76l-4.55,37.17c-.83,6.83-5.16,10.62-11.91,10.62h-25.49c-6.83,0-10.17-3.79-9.33-10.62L53.72.76c.08-.46.38-.76.83-.76h21.32c.46,0,.76.3.68.76l-4.25,34.44h1.06L77.62.76c.08-.46.38-.76.83-.76h21.32c.46,0,.76.3.68.76Z"/>
  <path class="cls-1" d="m102.51,0h35.35c6.83,0,10.17,3.79,9.33,10.62l-3.34,27.31c-.83,6.83-5.16,10.62-11.91,10.62h-35.35c-.38,0-.76-.3-.68-.76L101.67.76c.08-.46.38-.76.83-.76Zm17.75,35.35h1.06l2.73-22.15h-1.06l-2.73,22.15Z"/>
  <path class="cls-1" d="m195.14,10.62l-.68,5.84c-.46,4.32-2.81,6.9-6.15,8.5l4.48,4.93-2.2,17.9c-.08.46-.38.76-.83.76h-21.32c-.46,0-.76-.3-.68-.76l1.82-14.57-.91-1.21-1.97,15.78c-.08.46-.38.76-.83.76h-21.32c-.46,0-.76-.3-.68-.76L149.62.76c.08-.46.38-.76.83-.76h35.35c6.68,0,10.17,3.64,9.33,10.62Zm-23.14,2.73h-1.06l-.99,7.74h1.06l.99-7.74Z"/>
  <path class="cls-1" d="m191.81,47.8L197.57.76c.08-.46.38-.76.83-.76h39.22c.38,0,.76.3.68.76l-2.05,16.99c-.08.46-.46.76-.91.76h-17.22l-.08,1.06h17.22c.38,0,.68.3.61.76l-1.06,8.65c-.08.38-.38.68-.83.68h-17.22l-.08,1.14h17.22c.38,0,.68.3.61.68l-1.97,16.31c-.08.46-.38.76-.83.76h-39.22c-.46,0-.76-.3-.68-.76Z"/>
  <path class="cls-1" d="m245.75,47.8l1.21-9.56-10.24-14.49,2.81-22.99c.08-.46.38-.76.83-.76h21.32c.46,0,.76.3.68.76l-2.12,17.15.46.76.61-.76,2.12-17.15c.08-.46.38-.76.83-.76h21.32c.46,0,.76.3.68.76l-2.81,22.99-13.73,14.49-1.21,9.56c-.08.46-.38.76-.76.76h-21.32c-.38,0-.76-.3-.68-.76Z"/>
  <path class="cls-1" d="m296.88,37.93l.76-6.37c.08-.46.46-.83.91-.83h21.32c.38,0,.76.3.68.68l-.53,3.79h1.06l.76-5.61h-13.28c-6.83,0-10.17-3.72-9.33-10.62l.99-8.35c.83-6.83,5.08-10.62,11.91-10.62h25.49c6.83,0,10.17,3.79,9.33,10.62l-.83,6.68c-.08.46-.38.76-.83.76h-21.32c-.38,0-.76-.3-.68-.68l.53-4.02h-1.06l-.76,5.84h13.28c6.83,0,10.17,3.72,9.33,10.62l-.99,7.97c-.76,6.22-5.92,10.77-12.06,10.77h-25.34c-6.75,0-10.17-3.79-9.33-10.62Z"/>
  <path class="cls-1" d="m350.22,0h21.24c.38,0,.76.3.68.76l-5.77,47.04c-.08.46-.38.76-.83.76h-21.24c-.38,0-.76-.3-.68-.76l5.77-47.04c.08-.46.38-.76.83-.76Z"/>
</svg>