<svg xmlns="http://www.w3.org/2000/svg" xmlns:xlink="http://www.w3.org/1999/xlink" width="200" zoomAndPan="magnify" viewBox="0 0 150 74.999997" height="100" preserveAspectRatio="xMidYMid meet" version="1.0"><defs><g/></defs><g fill="#000000" fill-opacity="1"><g transform="translate(7.010279, 40.746203)"><g><path d="M 0.328125 0 L 6.40625 -13.578125 L 13.015625 -13.578125 L 19.078125 0 L 14.0625 0 L 12.96875 -2.578125 L 6.46875 -2.578125 L 5.34375 0 Z M 7.75 -5.796875 L 11.65625 -5.796875 L 9.703125 -10.34375 Z M 7.75 -5.796875 "/></g></g></g><g fill="#000000" fill-opacity="1"><g transform="translate(24.615567, 40.746203)"><g><path d="M 9.0625 0.1875 C 6.070312 0.1875 3.898438 -0.382812 2.546875 -1.53125 C 1.203125 -2.6875 0.53125 -4.445312 0.53125 -6.8125 L 0.53125 -13.578125 L 5.078125 -13.578125 L 5.078125 -6.8125 C 5.078125 -6.40625 5.125 -6.015625 5.21875 -5.640625 C 5.320312 -5.265625 5.507812 -4.925781 5.78125 -4.625 C 6.050781 -4.320312 6.445312 -4.082031 6.96875 -3.90625 C 7.5 -3.726562 8.195312 -3.640625 9.0625 -3.640625 C 9.925781 -3.640625 10.625 -3.726562 11.15625 -3.90625 C 11.6875 -4.09375 12.085938 -4.335938 12.359375 -4.640625 C 12.628906 -4.953125 12.8125 -5.296875 12.90625 -5.671875 C 13.007812 -6.046875 13.0625 -6.425781 13.0625 -6.8125 L 13.0625 -13.578125 L 17.59375 -13.578125 L 17.59375 -6.8125 C 17.59375 -4.457031 16.914062 -2.703125 15.5625 -1.546875 C 14.207031 -0.390625 12.039062 0.1875 9.0625 0.1875 Z M 9.0625 0.1875 "/></g></g></g><g fill="#000000" fill-opacity="1"><g transform="translate(42.686701, 40.746203)"><g><path d="M 0.53125 0 L 0.53125 -13.578125 L 10.5625 -13.578125 C 11.394531 -13.578125 12.191406 -13.4375 12.953125 -13.15625 C 13.722656 -12.882812 14.410156 -12.46875 15.015625 -11.90625 C 15.628906 -11.351562 16.109375 -10.648438 16.453125 -9.796875 C 16.804688 -8.941406 16.984375 -7.941406 16.984375 -6.796875 C 16.984375 -5.640625 16.804688 -4.632812 16.453125 -3.78125 C 16.109375 -2.925781 15.628906 -2.21875 15.015625 -1.65625 C 14.410156 -1.101562 13.722656 -0.6875 12.953125 -0.40625 C 12.191406 -0.132812 11.394531 0 10.5625 0 Z M 5.078125 -3.84375 L 9.0625 -3.84375 C 9.46875 -3.84375 9.863281 -3.867188 10.25 -3.921875 C 10.644531 -3.972656 11.007812 -4.09375 11.34375 -4.28125 C 11.675781 -4.46875 11.941406 -4.757812 12.140625 -5.15625 C 12.335938 -5.550781 12.4375 -6.097656 12.4375 -6.796875 C 12.4375 -7.492188 12.335938 -8.039062 12.140625 -8.4375 C 11.941406 -8.832031 11.675781 -9.125 11.34375 -9.3125 C 11.007812 -9.5 10.644531 -9.613281 10.25 -9.65625 C 9.863281 -9.707031 9.46875 -9.734375 9.0625 -9.734375 L 5.078125 -9.734375 Z M 5.078125 -3.84375 "/></g></g></g><g fill="#000000" fill-opacity="1"><g transform="translate(59.942598, 40.746203)"><g><path d="M 0.53125 0 L 0.53125 -13.578125 L 11.203125 -13.578125 C 12.234375 -13.578125 13.132812 -13.359375 13.90625 -12.921875 C 14.6875 -12.492188 15.296875 -11.894531 15.734375 -11.125 C 16.171875 -10.351562 16.390625 -9.46875 16.390625 -8.46875 C 16.390625 -7.4375 16.160156 -6.53125 15.703125 -5.75 C 15.242188 -4.96875 14.613281 -4.367188 13.8125 -3.953125 L 16.265625 0 L 10.890625 0 L 8.890625 -3.3125 L 5.078125 -3.3125 L 5.078125 0 Z M 5.078125 -7.15625 L 10.234375 -7.15625 C 10.460938 -7.15625 10.703125 -7.175781 10.953125 -7.21875 C 11.203125 -7.257812 11.414062 -7.367188 11.59375 -7.546875 C 11.769531 -7.734375 11.859375 -8.039062 11.859375 -8.46875 C 11.859375 -8.894531 11.769531 -9.195312 11.59375 -9.375 C 11.414062 -9.550781 11.203125 -9.65625 10.953125 -9.6875 C 10.703125 -9.71875 10.460938 -9.734375 10.234375 -9.734375 L 5.078125 -9.734375 Z M 5.078125 -7.15625 "/></g></g></g><g fill="#000000" fill-opacity="1"><g transform="translate(76.596769, 40.746203)"><g><path d="M 0.53125 0 L 0.53125 -13.578125 L 14.890625 -13.578125 L 14.890625 -10.046875 L 5.078125 -10.046875 L 5.078125 -8.328125 L 14.890625 -8.328125 L 14.890625 -5.265625 L 5.078125 -5.265625 L 5.078125 -3.53125 L 14.890625 -3.53125 L 14.890625 0 Z M 0.53125 0 "/></g></g></g><g fill="#000000" fill-opacity="1"><g transform="translate(91.756334, 40.746203)"><g><path d="M 7.484375 0 L 7.484375 -4.46875 L 0.328125 -13.578125 L 5.640625 -13.578125 L 9.765625 -8.171875 L 13.890625 -13.578125 L 19.1875 -13.578125 L 12.046875 -4.46875 L 12.046875 0 Z M 7.484375 0 "/></g></g></g><g fill="#000000" fill-opacity="1"><g transform="translate(111.302662, 40.746203)"><g/></g></g><g fill="#000000" fill-opacity="1"><g transform="translate(119.416232, 40.746203)"><g><path d="M 9.078125 0.1875 C 7.234375 0.1875 5.65625 0.0507812 4.34375 -0.21875 C 3.039062 -0.488281 2.046875 -0.976562 1.359375 -1.6875 C 0.671875 -2.394531 0.328125 -3.414062 0.328125 -4.75 L 4.890625 -4.75 C 4.890625 -4.457031 5.003906 -4.203125 5.234375 -3.984375 C 5.472656 -3.773438 5.90625 -3.613281 6.53125 -3.5 C 7.164062 -3.394531 8.082031 -3.34375 9.28125 -3.34375 C 10.351562 -3.34375 11.160156 -3.375 11.703125 -3.4375 C 12.253906 -3.5 12.628906 -3.597656 12.828125 -3.734375 C 13.035156 -3.867188 13.140625 -4.050781 13.140625 -4.28125 C 13.140625 -4.476562 13.085938 -4.628906 12.984375 -4.734375 C 12.890625 -4.847656 12.695312 -4.941406 12.40625 -5.015625 C 12.113281 -5.085938 11.695312 -5.140625 11.15625 -5.171875 C 10.613281 -5.203125 9.894531 -5.238281 9 -5.28125 C 6.988281 -5.351562 5.367188 -5.53125 4.140625 -5.8125 C 2.910156 -6.09375 2.015625 -6.535156 1.453125 -7.140625 C 0.890625 -7.742188 0.609375 -8.566406 0.609375 -9.609375 C 0.609375 -11.109375 1.320312 -12.175781 2.75 -12.8125 C 4.175781 -13.457031 6.203125 -13.78125 8.828125 -13.78125 C 10.578125 -13.78125 12.066406 -13.625 13.296875 -13.3125 C 14.535156 -13 15.476562 -12.5 16.125 -11.8125 C 16.769531 -11.132812 17.09375 -10.21875 17.09375 -9.0625 L 12.5625 -9.0625 C 12.5625 -9.550781 12.226562 -9.867188 11.5625 -10.015625 C 10.90625 -10.171875 9.863281 -10.25 8.4375 -10.25 C 7.550781 -10.25 6.867188 -10.222656 6.390625 -10.171875 C 5.910156 -10.128906 5.582031 -10.046875 5.40625 -9.921875 C 5.226562 -9.796875 5.140625 -9.617188 5.140625 -9.390625 C 5.140625 -9.160156 5.234375 -8.988281 5.421875 -8.875 C 5.617188 -8.769531 5.992188 -8.691406 6.546875 -8.640625 C 7.097656 -8.597656 7.914062 -8.550781 9 -8.5 C 10.34375 -8.4375 11.546875 -8.347656 12.609375 -8.234375 C 13.679688 -8.128906 14.59375 -7.941406 15.34375 -7.671875 C 16.09375 -7.410156 16.664062 -7.019531 17.0625 -6.5 C 17.46875 -5.976562 17.671875 -5.28125 17.671875 -4.40625 C 17.671875 -3.164062 17.328125 -2.210938 16.640625 -1.546875 C 15.960938 -0.890625 14.984375 -0.4375 13.703125 -0.1875 C 12.421875 0.0625 10.878906 0.1875 9.078125 0.1875 Z M 9.078125 0.1875 "/></g></g></g><g fill="#000000" fill-opacity="1"><g transform="translate(137.3709, 40.746203)"><g><path d="M 0.53125 0 L 0.53125 -13.578125 L 5.078125 -13.578125 L 5.078125 0 Z M 0.53125 0 "/></g></g></g></svg>